name rise36.2859peak64.2979fall75.1499.mot
datacolumns 19
datarows 27
range 10.45663000000000 10.49996200000000
endheader
time	ground_force1_vx	ground_force1_vy	ground_force1_vz	ground_force1_px	ground_force1_py	ground_force1_pz	ground_force2_vx	ground_force2_vy	ground_force2_vz	ground_force2_px	ground_force2_py	ground_force2_pz	ground_torque1_x	ground_torque1_y	ground_torque1_z	ground_torque2_x	ground_torque2_y	ground_torque2_z	
10.45663000000000	-15.77754800000000	719.99375299999997	45.79786900000000	0.23853200000000	0.00000000000000	0.10534800000000	0.00000000000000	0.00000000000000	0.00000000000000	0.00000000000000	0.00000000000000	0.00000000000000	0.00000000000000	25.15043100000000	0.00000000000000	0.00000000000000	0.00000000000000	0.00000000000000	
10.45829100000000	-16.24149300000000	721.13772200000005	45.90225300000000	0.23780200000000	0.00000000000000	0.10532100000000	0.00000000000000	0.00000000000000	0.00000000000000	0.00000000000000	0.00000000000000	0.00000000000000	0.00000000000000	25.25427900000000	0.00000000000000	0.00000000000000	0.00000000000000	0.00000000000000	
10.45996200000000	-16.70648000000000	722.28891499999997	46.01076000000000	0.23709200000000	0.00000000000000	0.10529300000000	0.00000000000000	0.00000000000000	0.00000000000000	0.00000000000000	0.00000000000000	0.00000000000000	0.00000000000000	25.36193700000000	0.00000000000000	0.00000000000000	0.00000000000000	0.00000000000000	
10.46163000000000	-17.17255400000000	723.44604800000002	46.12296200000000	0.23640200000000	0.00000000000000	0.10526400000000	0.00000000000000	0.00000000000000	0.00000000000000	0.00000000000000	0.00000000000000	0.00000000000000	0.00000000000000	25.47312600000000	0.00000000000000	0.00000000000000	0.00000000000000	0.00000000000000	
10.46329000000000	-17.63975000000000	724.60794299999998	46.23844200000000	0.23573000000000	0.00000000000000	0.10523300000000	0.00000000000000	0.00000000000000	0.00000000000000	0.00000000000000	0.00000000000000	0.00000000000000	0.00000000000000	25.58756900000000	0.00000000000000	0.00000000000000	0.00000000000000	0.00000000000000	
10.46497300000000	-18.10808600000000	725.77352699999994	46.35679500000000	0.23507400000000	0.00000000000000	0.10520100000000	0.00000000000000	0.00000000000000	0.00000000000000	0.00000000000000	0.00000000000000	0.00000000000000	0.00000000000000	25.70498700000000	0.00000000000000	0.00000000000000	0.00000000000000	0.00000000000000	
10.46663000000000	-18.57756900000000	726.94183699999996	46.47763200000000	0.23443400000000	0.00000000000000	0.10516700000000	0.00000000000000	0.00000000000000	0.00000000000000	0.00000000000000	0.00000000000000	0.00000000000000	0.00000000000000	25.82510200000000	0.00000000000000	0.00000000000000	0.00000000000000	0.00000000000000	
10.46829600000000	-19.04819200000000	728.11202000000003	46.60057600000000	0.23380800000000	0.00000000000000	0.10513200000000	0.00000000000000	0.00000000000000	0.00000000000000	0.00000000000000	0.00000000000000	0.00000000000000	0.00000000000000	25.94763900000000	0.00000000000000	0.00000000000000	0.00000000000000	0.00000000000000	
10.46997100000000	-19.51993300000000	729.28332799999998	46.72526600000000	0.23319300000000	0.00000000000000	0.10509500000000	0.00000000000000	0.00000000000000	0.00000000000000	0.00000000000000	0.00000000000000	0.00000000000000	0.00000000000000	26.07232400000000	0.00000000000000	0.00000000000000	0.00000000000000	0.00000000000000	
10.47162500000000	-19.99275500000000	730.45512499999995	46.85136100000000	0.23258900000000	0.00000000000000	0.10505700000000	0.00000000000000	0.00000000000000	0.00000000000000	0.00000000000000	0.00000000000000	0.00000000000000	0.00000000000000	26.19888700000000	0.00000000000000	0.00000000000000	0.00000000000000	0.00000000000000	
10.47329300000000	-20.46660600000000	731.62688000000003	46.97853300000000	0.23199400000000	0.00000000000000	0.10501700000000	0.00000000000000	0.00000000000000	0.00000000000000	0.00000000000000	0.00000000000000	0.00000000000000	0.00000000000000	26.32705800000000	0.00000000000000	0.00000000000000	0.00000000000000	0.00000000000000	
10.47497500000000	-20.94141900000000	732.79817000000003	47.10647400000000	0.23140700000000	0.00000000000000	0.10497600000000	0.00000000000000	0.00000000000000	0.00000000000000	0.00000000000000	0.00000000000000	0.00000000000000	0.00000000000000	26.45657200000000	0.00000000000000	0.00000000000000	0.00000000000000	0.00000000000000	
10.47663000000000	-21.41710800000000	733.96867399999996	47.23489500000000	0.23082500000000	0.00000000000000	0.10493400000000	0.00000000000000	0.00000000000000	0.00000000000000	0.00000000000000	0.00000000000000	0.00000000000000	0.00000000000000	26.58717100000000	0.00000000000000	0.00000000000000	0.00000000000000	0.00000000000000	
10.47829000000000	-21.89357400000000	735.13817400000005	47.36352400000000	0.23024700000000	0.00000000000000	0.10489100000000	0.00000000000000	0.00000000000000	0.00000000000000	0.00000000000000	0.00000000000000	0.00000000000000	0.00000000000000	26.71859600000000	0.00000000000000	0.00000000000000	0.00000000000000	0.00000000000000	
10.47997100000000	-22.37069900000000	736.30655000000002	47.49211200000000	0.22967200000000	0.00000000000000	0.10484600000000	0.00000000000000	0.00000000000000	0.00000000000000	0.00000000000000	0.00000000000000	0.00000000000000	0.00000000000000	26.85059600000000	0.00000000000000	0.00000000000000	0.00000000000000	0.00000000000000	
10.48162500000000	-22.84834900000000	737.47377500000005	47.62042900000000	0.22909800000000	0.00000000000000	0.10480000000000	0.00000000000000	0.00000000000000	0.00000000000000	0.00000000000000	0.00000000000000	0.00000000000000	0.00000000000000	26.98292700000000	0.00000000000000	0.00000000000000	0.00000000000000	0.00000000000000	
10.48329400000000	-23.32637300000000	738.63991499999997	47.74826400000000	0.22852300000000	0.00000000000000	0.10475300000000	0.00000000000000	0.00000000000000	0.00000000000000	0.00000000000000	0.00000000000000	0.00000000000000	0.00000000000000	27.11534800000000	0.00000000000000	0.00000000000000	0.00000000000000	0.00000000000000	
10.48496000000000	-23.80460000000000	739.80512199999998	47.87542800000000	0.22794700000000	0.00000000000000	0.10470500000000	0.00000000000000	0.00000000000000	0.00000000000000	0.00000000000000	0.00000000000000	0.00000000000000	0.00000000000000	27.24762600000000	0.00000000000000	0.00000000000000	0.00000000000000	0.00000000000000	
10.48662300000000	-24.28284500000000	740.96962799999994	48.00175500000000	0.22736700000000	0.00000000000000	0.10465500000000	0.00000000000000	0.00000000000000	0.00000000000000	0.00000000000000	0.00000000000000	0.00000000000000	0.00000000000000	27.37953400000000	0.00000000000000	0.00000000000000	0.00000000000000	0.00000000000000	
10.48829100000000	-24.76090200000000	742.13373999999999	48.12709900000000	0.22678400000000	0.00000000000000	0.10460500000000	0.00000000000000	0.00000000000000	0.00000000000000	0.00000000000000	0.00000000000000	0.00000000000000	0.00000000000000	27.51085200000000	0.00000000000000	0.00000000000000	0.00000000000000	0.00000000000000	
10.48996300000000	-25.23854900000000	743.29783799999996	48.25133400000000	0.22619400000000	0.00000000000000	0.10455400000000	0.00000000000000	0.00000000000000	0.00000000000000	0.00000000000000	0.00000000000000	0.00000000000000	0.00000000000000	27.64136800000000	0.00000000000000	0.00000000000000	0.00000000000000	0.00000000000000	
10.49162800000000	-25.71554700000000	744.46236299999998	48.37435900000000	0.22559800000000	0.00000000000000	0.10450100000000	0.00000000000000	0.00000000000000	0.00000000000000	0.00000000000000	0.00000000000000	0.00000000000000	0.00000000000000	27.77087800000000	0.00000000000000	0.00000000000000	0.00000000000000	0.00000000000000	
10.49329400000000	-26.19163600000000	745.62781299999995	48.49609100000000	0.22499400000000	0.00000000000000	0.10444800000000	0.00000000000000	0.00000000000000	0.00000000000000	0.00000000000000	0.00000000000000	0.00000000000000	0.00000000000000	27.89918500000000	0.00000000000000	0.00000000000000	0.00000000000000	0.00000000000000	
10.49496100000000	-26.66654400000000	746.79473700000005	48.61646900000000	0.22438200000000	0.00000000000000	0.10439400000000	0.00000000000000	0.00000000000000	0.00000000000000	0.00000000000000	0.00000000000000	0.00000000000000	0.00000000000000	28.02610000000000	0.00000000000000	0.00000000000000	0.00000000000000	0.00000000000000	
10.49662600000000	-27.13997700000000	747.96372599999995	48.73545700000000	0.22376000000000	0.00000000000000	0.10433900000000	0.00000000000000	0.00000000000000	0.00000000000000	0.00000000000000	0.00000000000000	0.00000000000000	0.00000000000000	28.15144500000000	0.00000000000000	0.00000000000000	0.00000000000000	0.00000000000000	
10.49829600000000	-27.61162700000000	749.13540599999999	48.85303400000000	0.22312800000000	0.00000000000000	0.10428300000000	0.00000000000000	0.00000000000000	0.00000000000000	0.00000000000000	0.00000000000000	0.00000000000000	0.00000000000000	28.27504800000000	0.00000000000000	0.00000000000000	0.00000000000000	0.00000000000000	
10.49996200000000	-28.08116900000000	750.31043099999999	48.96920300000000	0.22248500000000	0.00000000000000	0.10422700000000	0.00000000000000	0.00000000000000	0.00000000000000	0.00000000000000	0.00000000000000	0.00000000000000	0.00000000000000	28.39674700000000	0.00000000000000	0.00000000000000	0.00000000000000	0.00000000000000	
